<svg width="24" height="24" viewBox="0 0 24 24" fill="none" xmlns="http://www.w3.org/2000/svg">
<path d="M3 7.25C3 6.83578 3.33579 6.5 3.75 6.5H20.25C20.6642 6.5 21 6.83578 21 7.25C21 7.66421 20.6642 8 20.25 8H3.75C3.33579 8 3 7.66421 3 7.25Z" fill="#252B36"/>
<path d="M3.75 11.2499C3.33579 11.2499 3 11.5857 3 11.9999C3 12.4141 3.33579 12.7499 3.75 12.7499H20.25C20.6642 12.7499 21 12.4141 21 11.9999C21 11.5857 20.6642 11.2499 20.25 11.2499H3.75Z" fill="#252B36"/>
<path d="M3 16.75C3 16.3357 3.33579 16 3.75 16H20.25C20.6642 16 21 16.3357 21 16.75C21 17.1642 20.6642 17.5 20.25 17.5H3.75C3.33579 17.5 3 17.1642 3 16.75Z" fill="#252B36"/>
</svg>
